<?xml version="1.0" encoding="UTF-8" standalone="no"?>
<!-- Generator: Adobe Illustrator 9.0, SVG Export Plug-In  -->

<svg
   width="128"
   height="128"
   xml:space="preserve"
   id="svg16168"
   sodipodi:version="0.32"
   inkscape:version="1.4.2 (ebf0e940d0, 2025-05-08)"
   sodipodi:docname="org.gnome.eog.svg"
   inkscape:output_extension="org.inkscape.output.svg.inkscape"
   version="1.1"
   xmlns:inkscape="http://www.inkscape.org/namespaces/inkscape"
   xmlns:sodipodi="http://sodipodi.sourceforge.net/DTD/sodipodi-0.dtd"
   xmlns:xlink="http://www.w3.org/1999/xlink"
   xmlns="http://www.w3.org/2000/svg"
   xmlns:svg="http://www.w3.org/2000/svg"
   xmlns:rdf="http://www.w3.org/1999/02/22-rdf-syntax-ns#"
   xmlns:cc="http://creativecommons.org/ns#"
   xmlns:dc="http://purl.org/dc/elements/1.1/"><metadata
   id="metadata16236">
  <rdf:RDF>
    <cc:Work
   rdf:about="">
      <dc:format>image/svg+xml</dc:format>



      <dc:type
   rdf:resource="http://purl.org/dc/dcmitype/StillImage" />



    
<dc:creator>
  <cc:Agent>
    <dc:title>Jakub Steiner</dc:title>
  </cc:Agent>
</dc:creator>
<dc:subject>
  <rdf:Bag><rdf:li>image</rdf:li><rdf:li>picture</rdf:li><rdf:li>snapshot</rdf:li><rdf:li>photo</rdf:li></rdf:Bag>
</dc:subject>
<cc:license
   rdf:resource="http://creativecommons.org/publicdomain/zero/1.0/" />
</cc:Work>



  
<cc:License
   rdf:about="http://creativecommons.org/publicdomain/zero/1.0/"><cc:permits
     rdf:resource="http://creativecommons.org/ns#Reproduction" /><cc:permits
     rdf:resource="http://creativecommons.org/ns#Distribution" /><cc:permits
     rdf:resource="http://creativecommons.org/ns#DerivativeWorks" /></cc:License></rdf:RDF>



</metadata>



<defs
   id="defs16234"><linearGradient
   id="linearGradient1"
   inkscape:collect="always"><stop
     style="stop-color:#4b5e71;stop-opacity:1;"
     offset="0"
     id="stop1" /><stop
     style="stop-color:#8b9eb1;stop-opacity:1;"
     offset="1"
     id="stop2" /></linearGradient><inkscape:perspective
   sodipodi:type="inkscape:persp3d"
   inkscape:vp_x="0 : 104 : 1"
   inkscape:vp_y="0 : 1000 : 0"
   inkscape:vp_z="48 : 104 : 1"
   inkscape:persp3d-origin="24 : 96 : 1"
   id="perspective80" /><linearGradient
   id="linearGradient5048"><stop
     style="stop-color:black;stop-opacity:0;"
     offset="0"
     id="stop5050" /><stop
     id="stop5056"
     offset="0.5"
     style="stop-color:black;stop-opacity:1;" /><stop
     style="stop-color:black;stop-opacity:0;"
     offset="1"
     id="stop5052" /></linearGradient><linearGradient
   id="linearGradient8171"><stop
     style="stop-color:#bbbdba;stop-opacity:1;"
     offset="0"
     id="stop8173" /><stop
     style="stop-color:#70746e;stop-opacity:1;"
     offset="1"
     id="stop8175" /></linearGradient><linearGradient
   id="linearGradient2224"><stop
     style="stop-color:#7c7c7c;stop-opacity:1;"
     offset="0"
     id="stop2226" /><stop
     style="stop-color:#b8b8b8;stop-opacity:1;"
     offset="1"
     id="stop2228" /></linearGradient><linearGradient
   id="linearGradient7648"
   gradientUnits="userSpaceOnUse"
   x1="21.9326"
   y1="24.627399"
   x2="21.9326"
   y2="7.1090999"
   style="stroke-width:1.21667;stroke-miterlimit:4;stroke-dasharray:none">
			<stop
   offset="0"
   style="stop-color:#8595bc;stop-opacity:1;"
   id="stop7650" />




			<stop
   offset="1"
   style="stop-color:#041a3b;stop-opacity:1;"
   id="stop7652" />




		</linearGradient><linearGradient
   id="linearGradient2392"><stop
     id="stop2394"
     offset="0.0000000"
     style="stop-color:#715b26;stop-opacity:1.0000000;" /><stop
     id="stop2396"
     offset="1.0000000"
     style="stop-color:#312710;stop-opacity:1.0000000;" /></linearGradient><linearGradient
   inkscape:collect="always"
   id="linearGradient12129"><stop
     style="stop-color:#000000;stop-opacity:1;"
     offset="0"
     id="stop12131" /><stop
     style="stop-color:#000000;stop-opacity:0;"
     offset="1"
     id="stop12133" /></linearGradient>
		
		<linearGradient
   style="stroke-width:1.21667;stroke-miterlimit:4;stroke-dasharray:none"
   y2="36.032799"
   x2="31.081301"
   y1="3.7319"
   x1="12.4873"
   gradientUnits="userSpaceOnUse"
   id="aigrd1">
			<stop
   id="stop16177"
   style="stop-color:#D2D2D2;stroke-dasharray:none;stroke-miterlimit:4.0000000;stroke-width:1.2166667"
   offset="0" />




			<stop
   id="stop16179"
   style="stop-color:#EDEDED;stroke-dasharray:none;stroke-miterlimit:4.0000000;stroke-width:1.2166667"
   offset="1" />




		</linearGradient>




		
		<linearGradient
   style="stroke-width:1.21667;stroke-miterlimit:4;stroke-dasharray:none"
   y2="22.5769"
   x2="21.9168"
   y1="30.341299"
   x1="21.877001"
   gradientUnits="userSpaceOnUse"
   id="aigrd2">
			<stop
   id="stop16184"
   style="stop-color:#5e4f07;stop-opacity:1.0000000;"
   offset="0.0000000" />




			<stop
   id="stop16186"
   style="stop-color:#348a31;stop-opacity:1.0000000;"
   offset="1.0000000" />




		</linearGradient>




		
		
		
		
		
		<linearGradient
   style="stroke-width:1.21667;stroke-miterlimit:4;stroke-dasharray:none"
   y2="7.1090999"
   x2="21.9326"
   y1="24.627399"
   x1="21.9326"
   gradientUnits="userSpaceOnUse"
   id="aigrd3">
			<stop
   id="stop16199"
   style="stop-color:#c27070;stop-opacity:1;"
   offset="0" />




			<stop
   id="stop16201"
   style="stop-color:#4d85c6;stop-opacity:1;"
   offset="1" />




		</linearGradient>




		
		
		
		
		
		
		
	











<radialGradient
   inkscape:collect="always"
   xlink:href="#linearGradient12129"
   id="radialGradient12135"
   cx="24.218407"
   cy="41.63604"
   fx="24.218407"
   fy="41.63604"
   r="22.097088"
   gradientTransform="matrix(1,0,0,0.184,0,33.97501)"
   gradientUnits="userSpaceOnUse" /><linearGradient
   inkscape:collect="always"
   xlink:href="#linearGradient7648"
   id="linearGradient7671"
   gradientUnits="userSpaceOnUse"
   gradientTransform="matrix(1.0833261,0,0,-0.83020281,-1.5055666,38.109331)"
   x1="21.9326"
   y1="22.182978"
   x2="21.9326"
   y2="4.6415753" /><linearGradient
   inkscape:collect="always"
   xlink:href="#aigrd3"
   id="linearGradient7673"
   gradientUnits="userSpaceOnUse"
   gradientTransform="matrix(1.0833261,0,0,1.1517078,-1.5055666,-5.8553404)"
   x1="21.9326"
   y1="22.201637"
   x2="21.9326"
   y2="12.103871" /><linearGradient
   inkscape:collect="always"
   xlink:href="#aigrd1"
   id="linearGradient8148"
   gradientUnits="userSpaceOnUse"
   gradientTransform="matrix(3.6368396,0,0,3.2932844,138.10801,-2.972934)"
   x1="12.4873"
   y1="3.7319"
   x2="31.081301"
   y2="36.032799" /><radialGradient
   inkscape:collect="always"
   xlink:href="#linearGradient4467"
   id="radialGradient4473"
   cx="15.414371"
   cy="13.078408"
   fx="15.414371"
   fy="13.078408"
   r="6.65625"
   gradientTransform="matrix(3.6871971,0,0,3.2025756,-15.393435,31.63891)"
   gradientUnits="userSpaceOnUse" /><linearGradient
   id="linearGradient4467"><stop
     style="stop-color:#ffffff;stop-opacity:1;"
     offset="0"
     id="stop4469" /><stop
     style="stop-color:#ffffff;stop-opacity:0.24761905;"
     offset="1.0000000"
     id="stop4471" /></linearGradient><radialGradient
   inkscape:collect="always"
   xlink:href="#linearGradient4454"
   id="radialGradient4460"
   cx="18.240929"
   cy="21.817987"
   fx="18.240929"
   fy="21.817987"
   r="8.3085051"
   gradientUnits="userSpaceOnUse"
   gradientTransform="matrix(1.9888313,0,0,1.9888812,11.293784,46.708353)" /><linearGradient
   id="linearGradient4454"><stop
     style="stop-color:#729fcf;stop-opacity:0.20784314;"
     offset="0.0000000"
     id="stop4456" /><stop
     style="stop-color:#729fcf;stop-opacity:0.67619050;"
     offset="1.0000000"
     id="stop4458" /></linearGradient><linearGradient
   gradientUnits="userSpaceOnUse"
   y2="25.743469"
   x2="17.500893"
   y1="13.602121"
   x1="18.292673"
   id="linearGradient2372"
   xlink:href="#linearGradient2366"
   inkscape:collect="always"
   gradientTransform="matrix(1.7714485,0,0,1.7714928,-77.277829,49.725802)" /><linearGradient
   id="linearGradient2366"><stop
     id="stop2368"
     offset="0"
     style="stop-color:#ffffff;stop-opacity:1;" /><stop
     style="stop-color:#ffffff;stop-opacity:0.21904762;"
     offset="0.50000000"
     id="stop2374" /><stop
     id="stop2370"
     offset="1.0000000"
     style="stop-color:#ffffff;stop-opacity:1.0000000;" /></linearGradient><linearGradient
   inkscape:collect="always"
   xlink:href="#linearGradient4440"
   id="linearGradient4446"
   x1="31.176626"
   y1="33.462173"
   x2="32.919724"
   y2="31.531029"
   gradientUnits="userSpaceOnUse"
   gradientTransform="matrix(-1.8977933,0,0,1.8362652,82.323795,47.900445)" /><linearGradient
   id="linearGradient4440"><stop
     style="stop-color:#7d7d7d;stop-opacity:1;"
     offset="0"
     id="stop4442" /><stop
     id="stop4448"
     offset="0.50000000"
     style="stop-color:#b1b1b1;stop-opacity:1.0000000;" /><stop
     style="stop-color:#686868;stop-opacity:1.0000000;"
     offset="1.0000000"
     id="stop4444" /></linearGradient><linearGradient
   gradientUnits="userSpaceOnUse"
   y2="30.557772"
   x2="31.335964"
   y1="26.580296"
   x1="27.366341"
   id="linearGradient2852"
   xlink:href="#linearGradient2846"
   inkscape:collect="always"
   gradientTransform="matrix(-1.4220016,0,0,1.4220372,72.406979,58.509782)" /><linearGradient
   id="linearGradient2846"><stop
     id="stop2848"
     offset="0.0000000"
     style="stop-color:#8a8a8a;stop-opacity:1.0000000;" /><stop
     id="stop2850"
     offset="1.0000000"
     style="stop-color:#484848;stop-opacity:1.0000000;" /></linearGradient><linearGradient
   inkscape:collect="always"
   xlink:href="#linearGradient1"
   id="linearGradient2"
   x1="116.00005"
   y1="116.00015"
   x2="12"
   y2="12"
   gradientUnits="userSpaceOnUse"
   gradientTransform="matrix(1.0769226,0,0,1.0769226,-4.9230423,-4.9230703)" /></defs>



<sodipodi:namedview
   inkscape:window-height="1631"
   inkscape:window-width="1986"
   inkscape:pageshadow="2"
   inkscape:pageopacity="0.0"
   borderopacity="0.07058824"
   bordercolor="#666666"
   pagecolor="#ffffff"
   id="base"
   inkscape:zoom="2.8284273"
   inkscape:cx="-0.70710675"
   inkscape:cy="35.532114"
   inkscape:window-x="26"
   inkscape:window-y="23"
   inkscape:current-layer="svg16168"
   showgrid="true"
   inkscape:showpageshadow="false"
   inkscape:pagecheckerboard="0"
   inkscape:deskcolor="#d1d1d1"
   inkscape:window-maximized="0"><inkscape:grid
     id="grid1"
     units="px"
     originx="0"
     originy="0"
     spacingx="4"
     spacingy="4"
     empcolor="#0099e5"
     empopacity="0.30196078"
     color="#0099e5"
     opacity="0.14901961"
     empspacing="4"
     enabled="true"
     visible="true" /></sodipodi:namedview>




	
	<path
   style="color:#000000;display:inline;overflow:visible;visibility:visible;fill:url(#linearGradient8148);fill-opacity:1;fill-rule:nonzero;stroke:url(#linearGradient2);stroke-width:2.90447;stroke-linecap:butt;stroke-linejoin:miter;stroke-miterlimit:4;stroke-dashoffset:0;marker:none;marker-start:none;marker-mid:none;marker-end:none"
   d="M 12.564936,9.462575 115.02489,9.452235 c 1.58066,0 3.5229,1.580362 3.5229,3.653449 l -0.0165,101.686996 c 0,2.07308 -1.43624,3.71062 -3.01687,3.71062 l -103.054384,0.0446 c -1.580651,0 -3.007801,-1.24601 -3.007801,-3.31908 V 12.796371 c 0,-2.073088 1.532091,-3.333796 3.11274,-3.333796 z"
   id="rect7603"
   sodipodi:nodetypes="ccccccccc" />




















































<g
   id="g7654"
   transform="matrix(2.6821542,0,0,3.5017951,3.3262624,2.5070392)"><path
     id="path7644"
     d="M 5.8545794,30.487453 H 39.498687 V 19.69296 H 5.8545794 Z"
     style="fill:url(#linearGradient7671);fill-opacity:1;fill-rule:nonzero;stroke:none;stroke-width:1.23229;stroke-miterlimit:4" /><path
     style="fill:url(#linearGradient7673);fill-rule:nonzero;stroke:none;stroke-width:1.23229;stroke-miterlimit:4"
     d="M 5.8545794,4.7181889 H 39.498687 V 19.69296 H 5.8545794 Z"
     id="path16203" /><g
     id="g16205"
     style="fill-rule:nonzero;stroke:#000000;stroke-width:1.15611;stroke-miterlimit:4"
     transform="matrix(1.189217,0,0,1.189217,-3.525355,-6.535408)">
			<g
   id="g16207">
				<path
   style="opacity:0.0499999;fill:#e8f52f;stroke:none;stroke-width:1.01567"
   d="m 18.4,14.464409 c 0,1.697976 -1.8,3.16441 -4.1,3.16441 -2.2,0 -4.1,-1.389253 -4.1,-3.16441 C 10.2,12.766434 12,11.3 14.3,11.3 c 2.2,0 4.1,1.389253 4.1,3.164409 z"
   id="path16209" />




				<path
   style="opacity:0.2083;fill:#ecf751;stroke:none;stroke-width:1.01567"
   d="m 18,14.464409 c 0,1.543615 -1.6,2.855687 -3.7,2.855687 -2,0 -3.7,-1.234892 -3.7,-2.855687 0,-1.543614 1.6,-2.855686 3.7,-2.855686 2,0 3.7,1.234891 3.7,2.855686 z"
   id="path16211" />




				<path
   style="opacity:0.3667;fill:#f0f972;stroke:none;stroke-width:1.01567"
   d="m 17.6,14.464409 c 0,1.389253 -1.5,2.546964 -3.3,2.546964 -1.8,0 -3.3,-1.157711 -3.3,-2.546964 0,-1.389253 1.5,-2.546963 3.3,-2.546963 1.8,0 3.3,1.15771 3.3,2.546963 z"
   id="path16213" />




				<path
   style="opacity:0.525;fill:#f4fa95;stroke:none;stroke-width:1.01567"
   d="m 17.2,14.464409 c 0,1.234892 -1.3,2.238241 -2.9,2.238241 -1.6,0 -2.9,-1.003349 -2.9,-2.238241 0,-1.234891 1.3,-2.23824 2.9,-2.23824 1.6,0 2.9,1.003349 2.9,2.23824 z"
   id="path16215" />




				<path
   style="opacity:0.6833;fill:#f7fcb7;stroke:none;stroke-width:1.01567"
   d="m 16.8,14.464409 c 0,1.08053 -1.1,1.929518 -2.5,1.929518 -1.4,0 -2.5,-0.848988 -2.5,-1.929518 0,-1.08053 1.1,-1.929518 2.5,-1.929518 1.4,0 2.5,0.848988 2.5,1.929518 z"
   id="path16217" />




				<path
   style="opacity:0.8417;fill:#fbfddb;stroke:none;stroke-width:1.01567"
   d="m 16.4,14.464409 c 0,0.926169 -1,1.620795 -2.1,1.620795 -1.1,0 -2.1,-0.771807 -2.1,-1.620795 0,-0.848988 1,-1.620795 2.1,-1.620795 1.1,0 2.1,0.771807 2.1,1.620795 z"
   id="path16219" />




				<path
   style="fill:#ffffff;stroke:none;stroke-width:1.01567"
   d="m 16,14.464409 c 0,0.771807 -0.8,1.389253 -1.8,1.389253 -1,0 -1.8,-0.617446 -1.8,-1.389253 0,-0.771807 0.8,-1.389253 1.8,-1.389253 1,0 1.8,0.617446 1.8,1.389253 z"
   id="path16221" />




			</g>




		</g><path
     style="opacity:0.3;fill-rule:nonzero;stroke:none;stroke-width:1.23229;stroke-miterlimit:4"
     d="m 25.079782,21.796853 h 8.557563 l 1.641175,0.495035 h -2.813443 c 0,0 2.813443,0.247515 4.220168,2.103893 1.40672,1.732618 -1.641177,3.836512 -1.641177,3.836512 0,0 0,0 0,0 -0.117227,-0.371276 -0.82059,-3.341479 -2.227311,-4.579063 -1.055043,-0.990068 -2.227311,-1.237585 -2.227311,-1.237585 h -5.509664 v -0.495033 z"
     id="path16223" /><path
     style="opacity:0.3;fill-rule:nonzero;stroke:none;stroke-width:1.23229;stroke-miterlimit:4"
     d="m 30.706675,22.539403 h -4.92353 l 9.143696,5.445372 z"
     id="path16225" /><path
     style="fill:#454545;fill-opacity:1;fill-rule:nonzero;stroke:none;stroke-width:1.23229;stroke-miterlimit:4"
     d="m 25.079782,21.920612 h 8.557563 l 1.289496,-0.86631 h -2.813444 c 0,0 2.578989,-0.495033 2.930671,-3.588995 0.351679,-3.093961 -3.985715,-6.559196 -3.985715,-6.559196 0,0 0,0 0,0.123759 0.117226,0.74255 1.289495,5.940404 0.468909,7.920541 -0.351683,1.732615 -1.406724,2.103891 -1.406724,2.103891 h -5.392436 l 0.234454,0.86631 z"
     id="path16227" /><path
     style="fill:#454545;fill-opacity:1;fill-rule:nonzero;stroke:none;stroke-width:1.23229;stroke-miterlimit:4"
     d="m 30.237766,20.559269 h -4.923529 l 5.861342,-9.405643 z"
     id="path16229" /></g><path
   style="color:#000000;display:inline;overflow:visible;visibility:visible;fill:none;fill-opacity:1;fill-rule:nonzero;stroke:#ffffff;stroke-width:2.90082;stroke-linecap:butt;stroke-linejoin:miter;stroke-miterlimit:4;stroke-dashoffset:0;stroke-opacity:1;marker:none;marker-start:none;marker-mid:none;marker-end:none"
   d="M 13.050341,12.378376 H 115.02239 c 0.37929,0 0.92413,0.403899 0.92413,0.905609 V 113.93008 c 0,1.90893 -0.36492,2.02913 -0.74375,2.02913 H 13.050341 c -0.379293,0 -0.684642,-0.40392 -0.684642,-0.90563 V 13.283985 c 0,-0.50171 0.30535,-0.905609 0.684642,-0.905609 z"
   id="rect7675"
   sodipodi:nodetypes="ccccccccc" /><rect
   style="color:#000000;display:inline;overflow:visible;visibility:visible;opacity:0.846591;fill:none;fill-opacity:1;fill-rule:nonzero;stroke:#4f4f4f;stroke-width:2.94476;stroke-linecap:butt;stroke-linejoin:miter;stroke-miterlimit:4;stroke-dasharray:none;stroke-dashoffset:0;stroke-opacity:1;marker:none;marker-start:none;marker-mid:none;marker-end:none"
   id="rect8163"
   width="87.293922"
   height="87.293922"
   x="20.501532"
   y="20.501556" /><path
   sodipodi:nodetypes="csscccscccscczzzz"
   id="path2844"
   d="m 45.918547,62.980035 c 11.573855,0 20.967129,9.393505 20.967129,20.967658 0,11.574141 -9.393273,20.967657 -20.967129,20.967657 -4.947934,0 -9.315532,-1.96869 -12.902845,-4.83872 0.292046,1.43182 0.110956,2.89436 -1.075241,3.92472 L 16.34952,117.54966 c -1.753919,1.52349 -4.390375,1.32392 -5.913805,-0.43006 -1.523431,-1.75403 -1.323824,-4.39051 0.430092,-5.91396 L 26.456754,97.657311 c 0.954912,-0.82944 2.122874,-1.07501 3.279475,-0.91398 -2.825095,-3.572748 -4.784807,-7.890599 -4.784807,-12.795638 0,-11.574153 9.393273,-20.967659 20.967125,-20.967658 z m 0.107531,1.743675 c -10.863323,0 -18.900923,6.810071 -18.900923,18.901396 0,12.336331 8.271342,18.901364 18.900923,18.901364 10.384805,0 18.900923,-7.790017 18.900923,-18.901364 0,-11.353696 -8.282644,-18.901396 -18.900923,-18.901396 z"
   style="color:#000000;display:inline;overflow:visible;visibility:visible;fill:#dcdcdc;fill-opacity:1;fill-rule:evenodd;stroke:url(#linearGradient2852);stroke-width:2.84403;stroke-linecap:round;stroke-linejoin:miter;stroke-miterlimit:10;stroke-dasharray:none;stroke-dashoffset:0;stroke-opacity:1;marker:none;marker-start:none;marker-mid:none;marker-end:none" /><path
   style="color:#000000;display:inline;overflow:visible;visibility:visible;fill:#dcdcdc;fill-opacity:1;fill-rule:evenodd;stroke:none;stroke-width:1.42199;stroke-linecap:round;stroke-linejoin:miter;stroke-miterlimit:10;stroke-dasharray:none;stroke-dashoffset:0;stroke-opacity:1;marker:none;marker-start:none;marker-mid:none;marker-end:none"
   d="m 45.953619,62.89016 c 11.611268,0 21.03491,9.423873 21.03491,21.035433 0,11.611561 -9.423642,21.035417 -21.034911,21.035417 -4.963925,0 -9.345643,-1.97502 -12.944557,-4.85431 0.292991,1.43644 0.111326,2.90371 -1.078709,3.93735 L 16.28901,117.63619 c -1.759588,1.52842 -4.40457,1.32816 -5.932924,-0.43146 -1.528353,-1.75963 -1.328102,-4.40468 0.431486,-5.93306 L 26.428916,97.679531 c 0.957996,-0.83212 2.129736,-1.07849 3.290073,-0.91694 -2.834224,-3.584296 -4.800273,-7.916095 -4.800273,-12.836998 0,-11.61156 9.423638,-21.035433 21.034903,-21.035433 z m 0.107877,4.530713 c -8.931746,0 -16.180697,7.249131 -16.180697,16.181102 0,8.931971 7.248951,16.181096 16.180697,16.181096 8.931741,0 16.180696,-7.249125 16.180696,-16.181096 0,-8.931971 -7.248953,-16.181102 -16.180696,-16.181102 z"
   id="path4430" /><path
   style="color:#000000;display:inline;overflow:visible;visibility:visible;fill:url(#linearGradient4446);fill-opacity:1;fill-rule:evenodd;stroke:none;stroke-width:1.42199;stroke-linecap:round;stroke-linejoin:miter;stroke-miterlimit:10;stroke-dasharray:none;stroke-dashoffset:0;stroke-opacity:1;marker:none;marker-start:none;marker-mid:none;marker-end:none"
   d="m 16.244786,117.67687 c 0.680673,-3.2326 -1.930211,-6.80836 -5.039738,-6.7756 L 26.439002,97.668591 c 4.187496,-0.0806 6.054412,3.195979 5.353806,6.505489 z"
   id="path4438"
   sodipodi:nodetypes="ccccc" /><ellipse
   style="color:#000000;display:inline;overflow:visible;visibility:visible;fill:none;fill-opacity:1;fill-rule:evenodd;stroke:url(#linearGradient2372);stroke-width:1.42199;stroke-linecap:round;stroke-linejoin:miter;stroke-miterlimit:10;stroke-dasharray:none;stroke-dashoffset:0;stroke-opacity:1;marker:none;marker-start:none;marker-mid:none;marker-end:none"
   id="path4450"
   cx="-46.275902"
   cy="83.242851"
   transform="scale(-1,1)"
   rx="19.57193"
   ry="19.572418" /><rect
   style="color:#000000;display:inline;overflow:visible;visibility:visible;opacity:0.433155;fill:none;fill-opacity:1;fill-rule:evenodd;stroke:#ffffff;stroke-width:1.42205;stroke-linecap:round;stroke-linejoin:miter;stroke-miterlimit:10;stroke-dasharray:none;stroke-dashoffset:0;stroke-opacity:1;marker:none;marker-start:none;marker-mid:none;marker-end:none"
   id="rect4495"
   width="27.087219"
   height="6.3144579"
   x="40.283871"
   y="91.910706"
   rx="3.0383689"
   ry="2.6846874"
   transform="matrix(-0.75297758,0.65804617,0.64889257,0.76088004,0,0)" /><ellipse
   style="color:#000000;display:inline;visibility:visible;fill:url(#radialGradient4460);fill-opacity:1;fill-rule:evenodd;stroke:#3063a3;stroke-width:1.42199;stroke-linecap:round;stroke-linejoin:miter;stroke-miterlimit:10;stroke-dashoffset:0;stroke-opacity:1;marker:none;marker-start:none;marker-mid:none;marker-end:none"
   id="path4452"
   cx="46.275898"
   cy="83.459457"
   rx="16.524212"
   ry="16.52463" /><path
   style="color:#000000;display:inline;overflow:visible;visibility:visible;opacity:0.834225;fill:url(#radialGradient4473);fill-opacity:1;fill-rule:evenodd;stroke:none;stroke-width:1.42199;stroke-linecap:round;stroke-linejoin:miter;stroke-miterlimit:10;stroke-dasharray:none;stroke-dashoffset:0;stroke-opacity:1;marker:none;marker-start:none;marker-mid:none;marker-end:none"
   d="m 46.060743,69.092089 c -7.405201,0 -13.401723,5.996672 -13.401723,13.402056 0,2.138715 0.597681,4.106521 1.489085,5.90131 1.780885,0.656445 3.672682,1.103056 5.680561,1.103056 8.775111,0 15.783195,-6.91343 16.324727,-15.553007 -2.461433,-2.908818 -5.986679,-4.853416 -10.09265,-4.853415 z"
   id="path4462" /><path
   style="display:inline;opacity:0.7;fill:none;fill-rule:evenodd;stroke:#ffffff;stroke-width:1.50176;stroke-linecap:round;stroke-dasharray:none"
   d="M 15.992826,117.00416 C 15.841384,112.07371 11.802929,111.367 11.802929,111.367"
   id="path22"
   sodipodi:nodetypes="cc" /></svg>
