<?xml version="1.0" encoding="UTF-8" standalone="no"?>
<!-- Created with Inkscape (http://www.inkscape.org/) -->

<svg
   width="128"
   height="128"
   viewBox="0 0 33.866667 33.866666"
   version="1.1"
   id="svg1"
   inkscape:version="1.4.2 (ebf0e940d0, 2025-05-08)"
   sodipodi:docname="org.gnome.Extensions.svg"
   xmlns:inkscape="http://www.inkscape.org/namespaces/inkscape"
   xmlns:sodipodi="http://sodipodi.sourceforge.net/DTD/sodipodi-0.dtd"
   xmlns:xlink="http://www.w3.org/1999/xlink"
   xmlns="http://www.w3.org/2000/svg"
   xmlns:svg="http://www.w3.org/2000/svg"
   xmlns:rdf="http://www.w3.org/1999/02/22-rdf-syntax-ns#"
   xmlns:cc="http://creativecommons.org/ns#">
  <sodipodi:namedview
     id="namedview1"
     pagecolor="#ffffff"
     bordercolor="#000000"
     borderopacity="0.25"
     inkscape:showpageshadow="2"
     inkscape:pageopacity="0.0"
     inkscape:pagecheckerboard="false"
     inkscape:deskcolor="#d1d1d1"
     inkscape:document-units="px"
     inkscape:zoom="5.6568542"
     inkscape:cx="86.267028"
     inkscape:cy="29.43332"
     inkscape:window-width="2157"
     inkscape:window-height="1607"
     inkscape:window-x="26"
     inkscape:window-y="23"
     inkscape:window-maximized="0"
     inkscape:current-layer="layer1"
     showgrid="true">
    <inkscape:grid
       id="grid1"
       units="px"
       originx="0"
       originy="0"
       spacingx="0.26458333"
       spacingy="0.26458333"
       empcolor="#0099e5"
       empopacity="0.30196078"
       color="#0099e5"
       opacity="0.14901961"
       empspacing="4"
       enabled="true"
       visible="true" />
  </sodipodi:namedview>
  <defs
     id="defs1">
    <linearGradient
       id="linearGradient7"
       inkscape:collect="always">
      <stop
         style="stop-color:#ffffff;stop-opacity:0.50273222;"
         offset="0"
         id="stop8" />
      <stop
         style="stop-color:#ffffff;stop-opacity:0;"
         offset="1"
         id="stop9" />
    </linearGradient>
    <linearGradient
       id="linearGradient4"
       inkscape:collect="always">
      <stop
         style="stop-color:#0f6400;stop-opacity:1;"
         offset="0"
         id="stop5" />
      <stop
         style="stop-color:#0f8b00;stop-opacity:1;"
         offset="1"
         id="stop6" />
    </linearGradient>
    <linearGradient
       inkscape:collect="always"
       xlink:href="#linearGradient4"
       id="linearGradient6"
       x1="15.7181"
       y1="27.967037"
       x2="18.170034"
       y2="15.707364"
       gradientUnits="userSpaceOnUse"
       gradientTransform="matrix(0.86326384,-0.86326384,0.86326384,0.86326384,-12.311801,16.9426)" />
    <radialGradient
       inkscape:collect="always"
       xlink:href="#linearGradient7"
       id="radialGradient9"
       cx="3.3337295"
       cy="-1.01867"
       fx="3.3337295"
       fy="-1.01867"
       r="13.354765"
       gradientTransform="matrix(0.63398102,1.2679618,-2.6944176,1.3472095,1.491756,3.4953198)"
       gradientUnits="userSpaceOnUse" />
    <linearGradient
       id="linearGradient5048">
      <stop
         style="stop-color:black;stop-opacity:0;"
         offset="0"
         id="stop5050" />
      <stop
         id="stop5056"
         offset="0.5"
         style="stop-color:#000000;stop-opacity:0.79824561;" />
      <stop
         style="stop-color:black;stop-opacity:0;"
         offset="1"
         id="stop5052" />
    </linearGradient>
  </defs>
  <g
     inkscape:label="Layer 1"
     inkscape:groupmode="layer"
     id="layer1">
    <path
       style="fill:url(#linearGradient6);stroke:#083500;stroke-width:0.646116;stroke-linecap:round;stroke-linejoin:round;stroke-dasharray:none;stroke-dashoffset:4.2;stroke-opacity:1"
       d="m 17.56349,31.426941 c 1.260313,-1e-6 5.041256,-5.041257 5.041256,-5.041257 v 0 c -10.712669,-1.890469 1.890469,-14.493608 3.780942,-3.78094 0,0 5.041254,-3.780942 5.041253,-5.041254 1e-6,-1.260316 -5.671414,-5.671414 -5.671414,-5.671414 v 0 c 10.71267,-1.89047 -1.890467,-14.4936081 -3.930562,-3.6313182 0,0 -4.261474,-5.8210361 -5.52179,-5.8210335 -1.260313,-1.3e-6 -5.041253,5.0412539 -5.041253,5.0412539 v 0 c 11.342822,2.5206268 -1.260317,15.1237658 -3.7809409,3.7809398 0,0 -5.0412567,3.780943 -5.0412566,5.041257 -1.7e-6,1.260315 5.6714116,5.671411 5.6714116,5.671411 v 0 c -10.7126673,1.890473 1.8904699,14.493611 3.7809399,3.780941 0,0 4.411098,5.671416 5.671414,5.671414 z"
       id="path1"
       sodipodi:nodetypes="scccscccscccccccs" />
    <path
       style="fill:url(#radialGradient9);stroke:none;stroke-width:0.646116;stroke-linecap:round;stroke-linejoin:round;stroke-dasharray:none;stroke-dashoffset:4.2;stroke-opacity:1"
       d="m 26.671485,4.4543169 c 0,0 -3.501012,-1.8065389 -4.732304,4.3774613 0,0 -4.73442,-6.0750176 -5.621718,-6.0494386 -1.183054,0.034105 -4.470067,4.5068567 -4.470067,4.5068567 v 0 c 10.7868,3.0296527 -1.318678,15.5919387 -4.5448526,4.5294617 0,0 -4.5322307,3.226728 -4.5322307,4.487044 0.077172,1.009153 5.8216046,5.771369 5.8216046,5.771369 v 0 C 2.6670455,23.24205 4.3920571,26.733739 4.3920571,26.733739 8.0465401,29.93141 14.176068,21.517831 17.837682,17.856217 21.492165,14.201734 29.943159,8.0347935 26.671481,4.4543138 Z"
       id="path1-3-0"
       sodipodi:nodetypes="ccscccccccsc" />
  </g>
  <metadata
     id="metadata1">
    <rdf:RDF>
      <cc:License
         rdf:about="http://creativecommons.org/publicdomain/zero/1.0/">
        <cc:permits
           rdf:resource="http://creativecommons.org/ns#Reproduction" />
        <cc:permits
           rdf:resource="http://creativecommons.org/ns#Distribution" />
        <cc:permits
           rdf:resource="http://creativecommons.org/ns#DerivativeWorks" />
      </cc:License>
      <cc:Work
         rdf:about="">
        <cc:license
           rdf:resource="http://creativecommons.org/publicdomain/zero/1.0/" />
      </cc:Work>
    </rdf:RDF>
  </metadata>
</svg>
