<?xml version="1.0" encoding="UTF-8" standalone="no"?>
<!-- Created with Inkscape (http://www.inkscape.org/) -->

<svg
   width="128"
   height="128"
   viewBox="0 0 33.866667 33.866666"
   version="1.1"
   id="svg1"
   inkscape:version="1.4.2 (ebf0e940d0, 2025-05-08)"
   sodipodi:docname="drive-removable-media.svg"
   xmlns:inkscape="http://www.inkscape.org/namespaces/inkscape"
   xmlns:sodipodi="http://sodipodi.sourceforge.net/DTD/sodipodi-0.dtd"
   xmlns:xlink="http://www.w3.org/1999/xlink"
   xmlns="http://www.w3.org/2000/svg"
   xmlns:svg="http://www.w3.org/2000/svg"
   xmlns:rdf="http://www.w3.org/1999/02/22-rdf-syntax-ns#"
   xmlns:cc="http://creativecommons.org/ns#">
  <sodipodi:namedview
     id="namedview1"
     pagecolor="#ffffff"
     bordercolor="#000000"
     borderopacity="0.25"
     inkscape:showpageshadow="2"
     inkscape:pageopacity="0.0"
     inkscape:pagecheckerboard="0"
     inkscape:deskcolor="#d1d1d1"
     inkscape:document-units="px"
     inkscape:zoom="8"
     inkscape:cx="62"
     inkscape:cy="47.4375"
     inkscape:window-width="2157"
     inkscape:window-height="1607"
     inkscape:window-x="26"
     inkscape:window-y="23"
     inkscape:window-maximized="0"
     inkscape:current-layer="layer1"
     showgrid="true">
    <inkscape:grid
       id="grid1"
       units="px"
       originx="0"
       originy="0"
       spacingx="0.52916666"
       spacingy="0.52916666"
       empcolor="#0099e5"
       empopacity="0.30196078"
       color="#0099e5"
       opacity="0.14901961"
       empspacing="4"
       enabled="true"
       visible="true" />
  </sodipodi:namedview>
  <defs
     id="defs1">
    <radialGradient
       inkscape:collect="always"
       xlink:href="#linearGradient2673"
       id="radialGradient2679"
       cx="40.796875"
       cy="33.734375"
       fx="40.796875"
       fy="33.734375"
       r="0.984375"
       gradientUnits="userSpaceOnUse"
       gradientTransform="matrix(1.0111361,0,0,1.0111361,-12.323426,-8.9116405)" />
    <linearGradient
       id="linearGradient2673">
      <stop
         style="stop-color:#ffffff;stop-opacity:1;"
         offset="0"
         id="stop2675" />
      <stop
         style="stop-color:#6f6f6f;stop-opacity:1.0000000;"
         offset="1.0000000"
         id="stop2677" />
    </linearGradient>
    <linearGradient
       inkscape:collect="always"
       xlink:href="#linearGradient2681"
       id="linearGradient2687"
       x1="25.785229"
       y1="32.363384"
       x2="25.785229"
       y2="35.670216"
       gradientUnits="userSpaceOnUse" />
    <linearGradient
       id="linearGradient2681">
      <stop
         style="stop-color:#000000;stop-opacity:0.47524753;"
         offset="0.0000000"
         id="stop2683" />
      <stop
         style="stop-color:#000000;stop-opacity:0;"
         offset="1"
         id="stop2685" />
    </linearGradient>
    <linearGradient
       gradientUnits="userSpaceOnUse"
       y2="47.620636"
       x2="44.0961"
       y1="4.433136"
       x1="12.378357"
       id="linearGradient4260"
       xlink:href="#linearGradient4254"
       inkscape:collect="always"
       gradientTransform="matrix(0.675627,0,0,0.675627,0.57240069,1.0801578)" />
    <linearGradient
       id="linearGradient4254"
       inkscape:collect="always">
      <stop
         id="stop4256"
         offset="0"
         style="stop-color:#ffffff;stop-opacity:1;" />
      <stop
         id="stop4258"
         offset="1"
         style="stop-color:#ffffff;stop-opacity:0;" />
    </linearGradient>
    <linearGradient
       gradientUnits="userSpaceOnUse"
       y2="10.596288"
       x2="16.12734"
       y1="22.70549"
       x1="34.420757"
       id="linearGradient5705"
       xlink:href="#linearGradient5699"
       inkscape:collect="always"
       gradientTransform="matrix(0.675627,0,0,0.675627,0.57240069,1.042687)" />
    <linearGradient
       id="linearGradient5699">
      <stop
         id="stop5701"
         offset="0"
         style="stop-color:#7a7a7a;stop-opacity:1;" />
      <stop
         id="stop5703"
         offset="1"
         style="stop-color:#a5a5a5;stop-opacity:1;" />
    </linearGradient>
    <radialGradient
       gradientUnits="userSpaceOnUse"
       gradientTransform="matrix(0.86901982,0.52813628,-0.48022351,0.7901809,-1.0182593,-2.2147808)"
       r="20.935818"
       fy="2.958519"
       fx="15.571491"
       cy="2.958519"
       cx="15.571491"
       id="radialGradient4250"
       xlink:href="#linearGradient4244"
       inkscape:collect="always" />
    <linearGradient
       id="linearGradient4244">
      <stop
         id="stop4246"
         offset="0.0000000"
         style="stop-color:#e4e4e4;stop-opacity:1.0000000;" />
      <stop
         id="stop4248"
         offset="1.0000000"
         style="stop-color:#d3d3d3;stop-opacity:1.0000000;" />
    </linearGradient>
    <linearGradient
       gradientUnits="userSpaceOnUse"
       y2="40.943935"
       x2="36.183067"
       y1="28.481176"
       x1="7.6046205"
       id="linearGradient4234"
       xlink:href="#linearGradient4228"
       inkscape:collect="always"
       gradientTransform="matrix(0.675627,0,0,0.675627,0.57240069,1.0801578)" />
    <linearGradient
       id="linearGradient4228">
      <stop
         id="stop4230"
         offset="0.0000000"
         style="stop-color:#bbbbbb;stop-opacity:1.0000000;" />
      <stop
         id="stop4232"
         offset="1.0000000"
         style="stop-color:#9f9f9f;stop-opacity:1.0000000;" />
    </linearGradient>
    <linearGradient
       inkscape:collect="always"
       xlink:href="#linearGradient5048"
       id="linearGradient6715"
       gradientUnits="userSpaceOnUse"
       gradientTransform="matrix(2.774389,0,0,1.969706,-1892.179,-872.8854)"
       x1="302.85715"
       y1="366.64789"
       x2="302.85715"
       y2="609.50507" />
    <linearGradient
       id="linearGradient5048">
      <stop
         style="stop-color:black;stop-opacity:0;"
         offset="0"
         id="stop5050" />
      <stop
         id="stop5056"
         offset="0.5"
         style="stop-color:black;stop-opacity:1;" />
      <stop
         style="stop-color:black;stop-opacity:0;"
         offset="1"
         id="stop5052" />
    </linearGradient>
    <radialGradient
       inkscape:collect="always"
       xlink:href="#linearGradient5060"
       id="radialGradient6717"
       gradientUnits="userSpaceOnUse"
       gradientTransform="matrix(2.774389,0,0,1.969706,-1891.633,-872.8854)"
       cx="605.71429"
       cy="486.64789"
       fx="605.71429"
       fy="486.64789"
       r="117.14286" />
    <linearGradient
       inkscape:collect="always"
       id="linearGradient5060">
      <stop
         style="stop-color:black;stop-opacity:1;"
         offset="0"
         id="stop5062" />
      <stop
         style="stop-color:black;stop-opacity:0;"
         offset="1"
         id="stop5064" />
    </linearGradient>
    <radialGradient
       inkscape:collect="always"
       xlink:href="#linearGradient5060"
       id="radialGradient6719"
       gradientUnits="userSpaceOnUse"
       gradientTransform="matrix(-2.774389,0,0,1.969706,112.7623,-872.8854)"
       cx="605.71429"
       cy="486.64789"
       fx="605.71429"
       fy="486.64789"
       r="117.14286" />
    <linearGradient
       inkscape:collect="always"
       xlink:href="#linearGradient2681"
       id="linearGradient1"
       gradientUnits="userSpaceOnUse"
       x1="25.785229"
       y1="32.363384"
       x2="25.785229"
       y2="35.670216" />
  </defs>
  <g
     inkscape:label="Layer 1"
     inkscape:groupmode="layer"
     id="layer1"
     style="display:inline">
    <g
       transform="matrix(0.01667952,0,0,0.01548703,31.768691,25.61718)"
       id="g6707"
       style="display:inline">
      <rect
         style="color:#000000;display:inline;overflow:visible;visibility:visible;opacity:0.402062;fill:url(#linearGradient6715);fill-opacity:1;fill-rule:nonzero;stroke:none;stroke-width:1;stroke-linecap:round;stroke-linejoin:miter;stroke-miterlimit:4;stroke-dasharray:none;stroke-dashoffset:0;stroke-opacity:1;marker:none;marker-start:none;marker-mid:none;marker-end:none"
         id="rect6709"
         width="1339.6335"
         height="478.35718"
         x="-1559.2523"
         y="-150.69685" />
      <path
         style="color:#000000;display:inline;overflow:visible;visibility:visible;opacity:0.402062;fill:url(#radialGradient6717);fill-opacity:1;fill-rule:nonzero;stroke:none;stroke-width:1;stroke-linecap:round;stroke-linejoin:miter;stroke-miterlimit:4;stroke-dasharray:none;stroke-dashoffset:0;stroke-opacity:1;marker:none;marker-start:none;marker-mid:none;marker-end:none"
         d="m -219.61876,-150.68038 c 0,0 0,478.33079 0,478.33079 142.874166,0.90045 345.40022,-107.16966 345.40014,-239.196175 0,-132.026537 -159.436816,-239.134595 -345.40014,-239.134615 z"
         id="path6711"
         sodipodi:nodetypes="cccc" />
      <path
         sodipodi:nodetypes="cccc"
         id="path6713"
         d="m -1559.2523,-150.68038 c 0,0 0,478.33079 0,478.33079 -142.8742,0.90045 -345.4002,-107.16966 -345.4002,-239.196175 0,-132.026537 159.4368,-239.134595 345.4002,-239.134615 z"
         style="color:#000000;display:inline;overflow:visible;visibility:visible;opacity:0.402062;fill:url(#radialGradient6719);fill-opacity:1;fill-rule:nonzero;stroke:none;stroke-width:1;stroke-linecap:round;stroke-linejoin:miter;stroke-miterlimit:4;stroke-dasharray:none;stroke-dashoffset:0;stroke-opacity:1;marker:none;marker-start:none;marker-mid:none;marker-end:none" />
    </g>
    <path
       sodipodi:nodetypes="cccsccccccccc"
       id="path4196"
       d="m 8.1973156,6.4599195 c -0.422265,0 -0.696738,0.196062 -0.865643,0.570062 -3e-6,0 -4.370464,11.5556305 -4.370464,11.5556305 0,0 -0.168917,0.453723 -0.168917,1.20346 0,0 0,6.51978 0,6.51978 0,0.731442 0.444417,1.097894 1.119007,1.097894 H 29.965166 c 0.665391,0 1.076778,-0.485223 1.076778,-1.245688 v -6.51978 c 0,0 0.0716,-0.520518 -0.06333,-0.886759 L 26.439244,7.1355505 c -0.124665,-0.345858 -0.43031,-0.667587 -0.76008,-0.675631 z"
       style="display:inline;fill:none;fill-opacity:1;fill-rule:evenodd;stroke:#535353;stroke-width:1.35125;stroke-linecap:round;stroke-linejoin:round;stroke-miterlimit:4;stroke-dasharray:none;stroke-opacity:1" />
    <path
       sodipodi:nodetypes="ccccccccc"
       id="path4170"
       d="m 2.7841276,19.319934 0.516586,-0.46768 25.4101224,0.04224 2.339295,0.21437 v 7.052555 c 0,0.760466 -0.410118,1.245405 -1.075512,1.245405 H 3.9069116 c -0.67459,0 -1.122784,-0.366225 -1.122784,-1.097666 z"
       style="display:inline;fill:url(#linearGradient4234);fill-opacity:1;fill-rule:evenodd;stroke:none;stroke-width:0.689436px;stroke-linecap:butt;stroke-linejoin:miter;stroke-opacity:1" />
    <path
       sodipodi:nodetypes="csccccccs"
       id="path3093"
       d="m 2.9702586,18.58863 c -0.482593,0.98931 -4.16e-4,1.616679 0.699755,1.616679 0,0 26.3494534,0 26.3494534,0 0.756058,-0.01609 1.246692,-0.68367 0.965181,-1.447774 L 26.448295,7.1295195 C 26.323631,6.7836615 26.005921,6.4619315 25.67615,6.4538875 H 8.2063656 c -0.422268,0 -0.699757,0.205102 -0.868662,0.579113 z"
       style="display:inline;fill:url(#radialGradient4250);fill-opacity:1;fill-rule:evenodd;stroke:none;stroke-width:0.675626px;stroke-linecap:butt;stroke-linejoin:miter;stroke-opacity:1" />
    <path
       sodipodi:nodetypes="ccccccc"
       id="path4201"
       d="m 30.004358,19.74022 c 0,0 -25.7540344,0 -25.7540344,0 -0.87104,0 -1.291753,-0.159826 -1.4379,-0.526764 0.062,0.638018 0.587802,1.054599 1.4379,1.054599 0,0 25.7540344,0 25.7540344,0 0.726978,-0.02247 1.175184,-0.580195 1.003134,-1.456045 -0.09058,0.568596 -0.38959,0.909355 -1.003134,0.92821 z"
       style="display:inline;fill:#ffffff;fill-opacity:1;fill-rule:evenodd;stroke:none;stroke-width:0.675626px;stroke-linecap:butt;stroke-linejoin:miter;stroke-opacity:1" />
    <path
       sodipodi:nodetypes="ccccccccc"
       id="path5637"
       d="m 26.479094,7.2666195 c 0,0 4.158708,10.4978345 4.158708,10.4978345 -0.418022,-0.268731 -0.595417,-0.481985 -1.013441,-0.422268 H 4.1194406 c -0.477738,0 -0.95372,0.506722 -0.95372,0.506722 L 7.4131236,7.0388755 c 0.09045,-0.337579 0.421389,-0.541702 0.869269,-0.541702 l 17.1738944,-0.05973 c 0.895762,0.11943 0.873513,0.411142 1.022807,0.829164 z"
       style="color:#000000;display:inline;overflow:visible;visibility:visible;fill:url(#linearGradient5705);fill-opacity:1;fill-rule:nonzero;stroke:none;stroke-width:0.675626;stroke-linecap:butt;stroke-linejoin:miter;stroke-miterlimit:4;stroke-dasharray:none;stroke-dashoffset:0;stroke-opacity:1;marker:none;marker-start:none;marker-mid:none;marker-end:none" />
    <path
       style="display:inline;fill:#686868;fill-opacity:1;fill-rule:evenodd;stroke:none;stroke-width:0.675626px;stroke-linecap:butt;stroke-linejoin:miter;stroke-opacity:1"
       d="m 30.778178,18.177943 c -0.225811,-0.157759 -0.429004,-0.131432 -0.803679,-0.150277 0,0 -26.2019174,-0.179157 -26.2019174,-0.179157 -0.388162,0.02985 -0.838384,0.54704 -0.838384,0.54704 0,0 0.385826,-0.945899 0.385826,-0.945899 0,0 0.229488,-0.785868 1.079593,-0.785868 0,0 25.1269994,0 25.1269994,0 0.488109,0.02221 0.788616,0.290287 0.913559,0.605069 z"
       id="path5697"
       sodipodi:nodetypes="cccsccccc" />
    <path
       style="display:inline;fill:none;fill-opacity:1;fill-rule:evenodd;stroke:url(#linearGradient4260);stroke-width:0.675626;stroke-linecap:round;stroke-linejoin:round;stroke-miterlimit:4;stroke-dasharray:none;stroke-opacity:1"
       d="m 8.4383966,6.7660445 c -0.406517,0 -0.670756,0.188733 -0.833361,0.548801 0,0 -4.334158,11.2091445 -4.334158,11.2091445 0,0 -0.16261,0.436805 -0.16261,1.158582 0,0 0,6.27664 0,6.27664 0,0.915298 0.300017,1.099176 1.077277,1.099176 H 29.647833 c 0.89394,0 1.036627,-0.213757 1.036627,-1.241459 V 19.54029 c 0,0 0.06892,-0.501106 -0.06098,-0.85369 L 26.168939,7.3320235 c -0.120016,-0.33296 -0.372034,-0.558237 -0.689507,-0.565979 z"
       id="path4252"
       sodipodi:nodetypes="cccsccccccccc" />
    <g
       id="g2142"
       transform="matrix(0.55803502,0,0,0.41117667,3.3692889,8.6524901)"
       style="display:inline;fill:url(#linearGradient2687);fill-opacity:1">
      <rect
         y="32.363384"
         x="5.3414402"
         height="3.8650389"
         width="37.930714"
         id="rect2151"
         style="color:#000000;display:inline;overflow:visible;visibility:visible;opacity:1;fill:url(#linearGradient1);fill-opacity:1;fill-rule:evenodd;stroke:none;stroke-width:1;stroke-linecap:square;stroke-linejoin:round;stroke-miterlimit:4;stroke-dasharray:none;stroke-dashoffset:0;stroke-opacity:0.423729;marker:none;marker-start:none;marker-mid:none;marker-end:none" />
    </g>
    <path
       style="display:inline;opacity:0.714286;fill:#ffffff;fill-opacity:1;fill-rule:evenodd;stroke:none;stroke-width:0.675626px;stroke-linecap:butt;stroke-linejoin:miter;stroke-opacity:1"
       d="m 6.3000298,23.559779 c 0,0 0.300418,0.551947 0.837876,0.522088 0,0 20.8432552,-0.01532 20.8432552,-0.01532 -0.02985,-1.642232 -0.464494,-2.106988 -0.464494,-2.106988 l 0.02349,1.642495 z"
       id="path1899"
       sodipodi:nodetypes="cccccc" />
    <circle
       style="color:#000000;font-family:'Bitstream Vera Sans';display:inline;overflow:visible;visibility:visible;fill:url(#radialGradient2679);fill-opacity:1;fill-rule:evenodd;stroke:none;stroke-width:0.822831px;stroke-linecap:butt;stroke-linejoin:miter;stroke-miterlimit:4;stroke-dasharray:none;stroke-dashoffset:0;stroke-opacity:1;marker:none;marker-start:none;marker-mid:none;marker-end:none"
       id="path2671"
       cx="29.104164"
       cy="25.4"
       r="0.79374999" />
  </g>
  <metadata
     id="metadata1">
    <rdf:RDF>
      <cc:License
         rdf:about="http://creativecommons.org/publicdomain/zero/1.0/">
        <cc:permits
           rdf:resource="http://creativecommons.org/ns#Reproduction" />
        <cc:permits
           rdf:resource="http://creativecommons.org/ns#Distribution" />
        <cc:permits
           rdf:resource="http://creativecommons.org/ns#DerivativeWorks" />
      </cc:License>
      <cc:Work
         rdf:about="">
        <cc:license
           rdf:resource="http://creativecommons.org/publicdomain/zero/1.0/" />
      </cc:Work>
    </rdf:RDF>
  </metadata>
</svg>
