<?xml version="1.0" encoding="UTF-8" standalone="no"?>
<!-- Generator: Adobe Illustrator 9.0, SVG Export Plug-In  -->

<svg
   sodipodi:docname="application-certificate2.svg"
   inkscape:version="1.4.2 (ebf0e940d0, 2025-05-08)"
   sodipodi:version="0.32"
   id="svg5105"
   xml:space="preserve"
   viewBox="0 0 128 128"
   height="128"
   width="128"
   inkscape:output_extension="org.inkscape.output.svg.inkscape"
   version="1.1"
   xmlns:inkscape="http://www.inkscape.org/namespaces/inkscape"
   xmlns:sodipodi="http://sodipodi.sourceforge.net/DTD/sodipodi-0.dtd"
   xmlns:xlink="http://www.w3.org/1999/xlink"
   xmlns="http://www.w3.org/2000/svg"
   xmlns:svg="http://www.w3.org/2000/svg"
   xmlns:rdf="http://www.w3.org/1999/02/22-rdf-syntax-ns#"
   xmlns:cc="http://creativecommons.org/ns#"
   xmlns:dc="http://purl.org/dc/elements/1.1/"><metadata
   id="metadata5189">
  <rdf:RDF>
    <cc:Work
   rdf:about="">
      <dc:format>image/svg+xml</dc:format>


      <dc:type
   rdf:resource="http://purl.org/dc/dcmitype/StillImage" />


    <dc:creator><cc:Agent><dc:title>Jakub Steiner</dc:title></cc:Agent></dc:creator><dc:subject><rdf:Bag><rdf:li>certificate</rdf:li></rdf:Bag></dc:subject><cc:license
   rdf:resource="http://creativecommons.org/publicdomain/zero/1.0/" /></cc:Work>


  <cc:License
   rdf:about="http://creativecommons.org/publicdomain/zero/1.0/"><cc:permits
     rdf:resource="http://creativecommons.org/ns#Reproduction" /><cc:permits
     rdf:resource="http://creativecommons.org/ns#Distribution" /><cc:permits
     rdf:resource="http://creativecommons.org/ns#DerivativeWorks" /></cc:License></rdf:RDF>


</metadata>


<defs
   id="defs5187"><linearGradient
   id="linearGradient7">
  <stop
   id="stop3"
   offset="0.0000000"
   style="stop-color:#1d2349;stop-opacity:1.0000000;" />
  <stop
   style="stop-color:#4c5279;stop-opacity:1.0000000;"
   offset="0.25918353"
   id="stop4" />
  <stop
   style="stop-color:#99a8ff;stop-opacity:1;"
   offset="0.56453741"
   id="stop5" />
  <stop
   id="stop6"
   offset="0.71123517"
   style="stop-color:#727cbe;stop-opacity:1.0000000;" />
  <stop
   id="stop7"
   offset="1.0000000"
   style="stop-color:#323c7e;stop-opacity:1.0000000;" />
</linearGradient><linearGradient
   id="linearGradient1"
   inkscape:collect="always"><stop
     style="stop-color:#d5dbff;stop-opacity:1;"
     offset="0"
     id="stop1" /><stop
     style="stop-color:#6579ff;stop-opacity:0;"
     offset="1"
     id="stop2" /></linearGradient><inkscape:perspective
   sodipodi:type="inkscape:persp3d"
   inkscape:vp_x="0 : 104 : 1"
   inkscape:vp_y="0 : 1000 : 0"
   inkscape:vp_z="48 : 104 : 1"
   inkscape:persp3d-origin="24 : 96 : 1"
   id="perspective54" /><linearGradient
   id="linearGradient6684">
  <stop
   id="stop6686"
   offset="0.0000000"
   style="stop-color:#d5dbff;stop-opacity:1.0000000;" />
  <stop
   id="stop6688"
   offset="1"
   style="stop-color:#6579ff;stop-opacity:0;" />
</linearGradient>
<linearGradient
   id="linearGradient6665">
  <stop
   style="stop-color:#000000;stop-opacity:1.0000000;"
   offset="0.0000000"
   id="stop6667" />
  <stop
   style="stop-color:#000000;stop-opacity:0.0000000;"
   offset="1.0000000"
   id="stop6669" />
</linearGradient>
<linearGradient
   id="linearGradient6625">
  <stop
   id="stop6627"
   offset="0.0000000"
   style="stop-color:#1d2349;stop-opacity:1.0000000;" />
  <stop
   style="stop-color:#4c5279;stop-opacity:1.0000000;"
   offset="0.25613323"
   id="stop6637" />
  <stop
   style="stop-color:#b3bdff;stop-opacity:1.0000000;"
   offset="0.5581488"
   id="stop6633" />
  <stop
   id="stop6635"
   offset="0.77174556"
   style="stop-color:#727cbe;stop-opacity:1.0000000;" />
  <stop
   id="stop6629"
   offset="1.0000000"
   style="stop-color:#323c7e;stop-opacity:1.0000000;" />
</linearGradient>
<linearGradient
   id="linearGradient6617">
  <stop
   id="stop6619"
   offset="0.0000000"
   style="stop-color:#ffffff;stop-opacity:0.24742268;" />
  <stop
   id="stop6621"
   offset="1"
   style="stop-color:#ffffff;stop-opacity:0;" />
</linearGradient>
<linearGradient
   id="linearGradient6604">
  <stop
   id="stop6606"
   offset="0.0000000"
   style="stop-color:#ffa196;stop-opacity:1.0000000;" />
  <stop
   id="stop6608"
   offset="1"
   style="stop-color:#ff1f06;stop-opacity:0;" />
</linearGradient>
<radialGradient
   r="13.2807"
   fy="20.971201"
   fx="28.789101"
   cy="20.971201"
   cx="28.789101"
   gradientUnits="userSpaceOnUse"
   id="radialGradient5199"
   xlink:href="#aigrd1"
   inkscape:collect="always" />


<radialGradient
   r="14.6944"
   fy="13.5444"
   fx="19.292"
   cy="13.5444"
   cx="19.292"
   gradientUnits="userSpaceOnUse"
   id="radialGradient5201"
   xlink:href="#aigrd2"
   inkscape:collect="always" />


<linearGradient
   y2="16.723101"
   x2="23.412001"
   y1="11.5991"
   x1="18.229"
   gradientUnits="userSpaceOnUse"
   id="linearGradient5203"
   xlink:href="#aigrd3"
   inkscape:collect="always" />



		
	
			
			
			<radialGradient
   gradientUnits="userSpaceOnUse"
   fy="20.971201"
   fx="28.789101"
   r="13.2807"
   cy="20.971201"
   cx="28.789101"
   id="aigrd1">
				<stop
   id="stop5115"
   style="stop-color:#E41E08"
   offset="0" />



				<stop
   id="stop5117"
   style="stop-color:#901505"
   offset="1" />



			</radialGradient>



			
			<radialGradient
   gradientUnits="userSpaceOnUse"
   fy="13.5444"
   fx="19.292"
   r="14.6944"
   cy="13.5444"
   cx="19.292"
   id="aigrd2">
				<stop
   id="stop5122"
   style="stop-color:#E41E08"
   offset="0" />



				<stop
   id="stop5124"
   style="stop-color:#901505"
   offset="1" />



			</radialGradient>



			
			
			
			
			
			<linearGradient
   y2="16.723101"
   x2="23.412001"
   y1="11.5991"
   x1="18.229"
   gradientUnits="userSpaceOnUse"
   id="aigrd3">
				<stop
   id="stop5137"
   style="stop-color:#FFFFFF"
   offset="0" />



				<stop
   id="stop5139"
   style="stop-color:#901505"
   offset="1" />



			</linearGradient>



			
			
			
		<linearGradient
   gradientTransform="matrix(1.135551,0,0,1.135551,-3.259995,-3.266773)"
   y2="16.723101"
   x2="23.412001"
   y1="11.5991"
   x1="18.229"
   gradientUnits="userSpaceOnUse"
   id="linearGradient5274"
   xlink:href="#aigrd3"
   inkscape:collect="always" />


<radialGradient
   gradientTransform="matrix(1.135551,0,0,1.135551,-4.540325,-2.077433)"
   r="14.6944"
   fy="13.5444"
   fx="19.292"
   cy="13.5444"
   cx="19.292"
   gradientUnits="userSpaceOnUse"
   id="radialGradient5281"
   xlink:href="#aigrd2"
   inkscape:collect="always" />


<radialGradient
   gradientTransform="matrix(2.9956195,0,0,2.9956195,-9.757453,1.8356968)"
   r="13.2807"
   fy="20.971201"
   fx="28.789101"
   cy="20.971201"
   cx="28.789101"
   gradientUnits="userSpaceOnUse"
   id="radialGradient5284"
   xlink:href="#aigrd1"
   inkscape:collect="always" />



				
			<linearGradient
   gradientUnits="userSpaceOnUse"
   y2="49.895073"
   x2="43.14098"
   y1="5.9244628"
   x1="15.338736"
   gradientTransform="matrix(2.2305716,0,0,2.1283963,9.6984619,16.362158)"
   id="linearGradient6610"
   xlink:href="#linearGradient6604"
   inkscape:collect="always" />
<linearGradient
   gradientUnits="userSpaceOnUse"
   y2="22.783224"
   x2="29.957399"
   y1="9.4436626"
   x1="18.570419"
   gradientTransform="matrix(2.3516001,0,0,2.2223441,7.0733161,14.558339)"
   id="linearGradient6623"
   xlink:href="#linearGradient6617"
   inkscape:collect="always" />
<linearGradient
   gradientUnits="userSpaceOnUse"
   y2="34.695045"
   x2="38.227089"
   y1="22.104105"
   x1="36.667488"
   gradientTransform="matrix(1.9257999,0.11602802,-0.16290787,2.7038983,2.6637125,15.468386)"
   id="linearGradient6631"
   xlink:href="#linearGradient6625"
   inkscape:collect="always" />
<radialGradient
   gradientUnits="userSpaceOnUse"
   r="33.156136"
   fy="18.540924"
   fx="22.140057"
   cy="18.540924"
   cx="22.140057"
   gradientTransform="matrix(2.342017,0,0,2.2314381,12.14761,10.627075)"
   id="radialGradient6663"
   xlink:href="#linearGradient6665"
   inkscape:collect="always" />
<radialGradient
   r="33.156136"
   fy="25.530085"
   fx="21.449844"
   cy="25.530085"
   cx="21.449844"
   gradientTransform="matrix(2.3377778,0.14084938,-0.13419915,2.2273991,10.132912,11.794624)"
   gradientUnits="userSpaceOnUse"
   id="radialGradient6675"
   xlink:href="#linearGradient6665"
   inkscape:collect="always" />
<radialGradient
   r="14.6944"
   fy="20.479359"
   fx="26.887432"
   cy="20.479359"
   cx="26.887432"
   gradientTransform="matrix(2.5959364,0,0,2.5959364,-0.37922452,7.0903035)"
   gradientUnits="userSpaceOnUse"
   id="radialGradient6678"
   xlink:href="#aigrd2"
   inkscape:collect="always" />
<linearGradient
   gradientUnits="userSpaceOnUse"
   y2="27.403761"
   x2="36.499001"
   y1="35.458244"
   x1="37.502811"
   gradientTransform="matrix(1.9257999,0.11602802,-0.16290787,2.7038983,6.327242,12.375042)"
   id="linearGradient6690"
   xlink:href="#linearGradient6684"
   inkscape:collect="always" />
<linearGradient
   inkscape:collect="always"
   xlink:href="#linearGradient1"
   id="linearGradient2"
   x1="73.040298"
   y1="115.08586"
   x2="67.322739"
   y2="88"
   gradientUnits="userSpaceOnUse" /><linearGradient
   inkscape:collect="always"
   xlink:href="#linearGradient7"
   id="linearGradient3"
   gradientUnits="userSpaceOnUse"
   gradientTransform="matrix(1.9257999,0.11602802,-0.16290787,2.7038983,2.6637125,15.468386)"
   x1="36.667488"
   y1="22.104105"
   x2="37.159569"
   y2="34.283203" /></defs>


<sodipodi:namedview
   inkscape:current-layer="svg5105"
   inkscape:window-y="30"
   inkscape:window-x="203"
   inkscape:cy="88.366247"
   inkscape:cx="65.318986"
   inkscape:zoom="22.627418"
   id="base"
   pagecolor="#ffffff"
   bordercolor="#666666"
   borderopacity="0.16470588"
   inkscape:pageopacity="0.0"
   inkscape:pageshadow="2"
   inkscape:window-width="821"
   inkscape:window-height="818"
   inkscape:showpageshadow="false"
   showgrid="true"
   inkscape:pagecheckerboard="0"
   inkscape:deskcolor="#d1d1d1"><inkscape:grid
     id="grid1"
     units="px"
     originx="0"
     originy="0"
     spacingx="4"
     spacingy="4"
     empcolor="#0099e5"
     empopacity="0.30196078"
     color="#0099e5"
     opacity="0.14901961"
     empspacing="4"
     enabled="true"
     visible="true" /></sodipodi:namedview>



	

<path
   style="color:#000000;display:inline;overflow:visible;visibility:visible;opacity:0.480447;fill:url(#radialGradient6675);fill-opacity:1;fill-rule:nonzero;stroke:none;stroke-width:2.28606;stroke-linecap:round;stroke-linejoin:round;stroke-miterlimit:4;stroke-dashoffset:0;stroke-opacity:1;marker:none;marker-start:none;marker-mid:none;marker-end:none"
   d="m 61.609049,59.918208 c 0,0 -7.265524,8.643777 -7.78072,17.194859 -0.515197,8.55109 7.980268,14.02489 13.824555,20.618547 C 73.497158,104.32527 49.159725,119.3051 49.159725,119.3051 L 69.952063,112.75538 80.633834,124 C 81.273926,113.37594 81.994904,103.0401 79.06585,94.533952 74.000279,79.823223 65.599143,76.7834 65.077846,68.169868 c -0.5213,-8.613534 -3.225285,-7.976924 -3.225285,-7.976924 z"
   id="path6671"
   sodipodi:nodetypes="csscccsscc" />
<path
   style="opacity:0.480447;fill:url(#radialGradient6663);fill-opacity:1;fill-rule:nonzero;stroke:none;stroke-width:2.28606;stroke-linecap:round;stroke-linejoin:round;stroke-miterlimit:4;stroke-opacity:1"
   d="m 94.392737,33.316166 c 3.021097,6.98934 8.328433,6.633725 8.459683,15.962438 0.0748,5.202525 4.1891,7.934325 4.1891,13.248894 0,5.314567 -9.178564,7.940561 -12.304786,11.066771 -3.126221,3.126225 0.246629,11.143227 -8.234451,13.499086 -8.400498,2.333473 -12.504876,-0.93786 -17.819444,-0.93786 -5.314574,0 -18.032016,10.247686 -22.721347,5.558356 C 41.272164,87.024528 41.172117,76.776837 37.108035,72.712756 32.731327,68.33605 25.816194,62.221117 25.816194,54.405571 c 0,-7.815542 4.51315,-11.941423 10.97922,-19.20743 6.671349,-7.496684 6.877679,-18.757311 14.693225,-18.757311 7.815543,0 10.811188,2.143888 17.463121,1.975773 10.60351,-0.267977 11.902916,-5.311247 19.701421,-1.356774 6.875784,3.48658 3.374577,10.784924 5.739556,16.256337 z"
   id="path6639"
   sodipodi:nodetypes="csssssssssssss" />
<path
   id="path5112"
   d="m 57.235606,56.265859 c 0,0 -2.952891,8.533991 -3.468087,17.085072 -0.515197,8.551082 2.398916,5.115321 6.493197,18.396484 2.595659,8.419885 -12.834845,23.742215 -12.834845,23.742215 l 20.069028,-5.69152 8.76549,10.54955 C 76.900482,109.72359 78.504492,101.09564 75.975425,92.462111 75.032153,89.242042 73.528186,86.333094 73.006888,77.71956 72.485588,69.106031 57.479117,56.540594 57.479117,56.540594 Z"
   style="display:inline;fill:url(#linearGradient6631);fill-opacity:1;fill-rule:nonzero;stroke:#1f254f;stroke-width:2.28606;stroke-miterlimit:6.6;stroke-opacity:1"
   sodipodi:nodetypes="csscccsscc" />


<path
   sodipodi:nodetypes="sscccsss"
   style="display:none;fill:none;fill-opacity:1;fill-rule:nonzero;stroke:url(#linearGradient6690);stroke-width:1.64853;stroke-miterlimit:6.6;stroke-opacity:1"
   d="m 51.88514,84.263641 c 2.503718,1.678647 5.912644,8.466724 9.115318,12.65164 3.540311,4.626109 -7.207559,15.339799 -7.207559,15.339799 l 14.201816,-4.76969 6.842625,7.94481 c 1.718492,-8.52051 1.930108,-14.52671 1.852428,-16.832596 -0.106284,-3.155 -5.605803,-7.918814 -5.981724,-14.130248 C 70.332122,78.255922 46.754081,80.823464 51.88514,84.263641 Z"
   id="path6680" /><path
   style="display:inline;fill:url(#linearGradient3);fill-opacity:1;fill-rule:nonzero;stroke:url(#linearGradient2);stroke-width:2.28606;stroke-miterlimit:6.6;stroke-opacity:1"
   sodipodi:type="inkscape:offset"
   inkscape:radius="-2.3237343"
   inkscape:original="M 57.236328 56.265625 C 57.236328 56.265625 54.282774 64.800481 53.767578 73.351562 C 53.252381 81.902644 56.165485 78.466884 60.259766 91.748047 C 62.855425 100.16793 47.425781 115.49023 47.425781 115.49023 L 67.494141 109.79883 L 76.259766 120.34766 C 76.899859 109.72359 78.503676 101.09642 75.974609 92.462891 C 75.031337 89.242822 73.529111 86.332284 73.007812 77.71875 C 72.486513 69.105221 57.478516 56.541016 57.478516 56.541016 L 57.236328 56.265625 z "
   xlink:href="#path5112"
   id="path1"
   inkscape:href="#path5112"
   d="m 58.429687,60.519531 c -0.883025,3.084668 -2.017552,7.590945 -2.341796,12.972656 -0.24291,4.031745 0.05302,4.279567 1.164062,6.046875 1.111046,1.767309 3.119049,4.682635 5.228516,11.525391 0.8983,2.913937 0.208765,5.945783 -0.982422,8.832031 -1.191187,2.886246 -2.966073,5.709046 -4.798828,8.242186 -0.857403,1.18506 -1.593661,1.96884 -2.429688,2.99414 l 12.589844,-3.57031 a 2.3239667,2.3239667 0 0 1 2.421875,0.75195 l 5.064453,6.09571 C 74.986764,106.48317 75.61718,99.509268 73.744141,93.115234 72.881785,90.17139 71.223154,86.710102 70.6875,77.859375 70.503967,74.826829 67.018185,69.540603 63.324219,65.458984 61.535154,63.482172 59.786993,61.784208 58.429687,60.519531 Z" />
<path
   sodipodi:nodetypes="csssssssssssss"
   id="path5119"
   d="m 89.864799,32.978186 c 2.894887,6.697364 7.980495,6.356605 8.10627,15.295609 0.07178,4.985192 4.014091,7.602869 4.014091,12.69542 0,5.092553 -8.795109,7.608844 -11.790736,10.604463 -2.995618,2.995623 0.23633,10.677718 -7.890453,12.935159 -8.049563,2.235992 -11.982486,-0.89868 -17.075041,-0.89868 -5.092558,0 -17.278731,9.819591 -21.772164,5.326157 -4.493432,-4.493428 -4.5893,-14.31302 -8.483606,-18.20733 -4.193871,-4.19387 -10.820124,-10.053347 -10.820124,-17.542399 0,-7.48905 4.324612,-11.442572 10.520564,-18.405043 6.392652,-7.183508 6.590364,-17.973724 14.079415,-17.973724 7.489052,0 10.359553,2.054328 16.733602,1.893238 10.160546,-0.256783 11.405668,-5.089372 18.878393,-1.300095 6.588549,3.340926 3.233611,10.334384 5.499789,15.577225 z"
   style="display:inline;fill:url(#radialGradient5284);fill-rule:nonzero;stroke:#4c0901;stroke-width:2.28606;stroke-linecap:round;stroke-linejoin:round;stroke-miterlimit:4;stroke-opacity:1" />


<path
   id="path5126"
   d="m 89.959365,52.000002 c 0,14.277652 -11.681717,25.959362 -25.959366,25.959362 -14.277653,0 -25.959364,-11.681713 -25.959364,-25.959364 0,-14.27765 11.681711,-25.959365 25.959364,-25.959365 14.277649,0 25.959366,11.681715 25.959366,25.959367 z"
   style="display:inline;fill:url(#radialGradient6678);fill-rule:nonzero;stroke:none;stroke-width:2.28606;stroke-miterlimit:4" />

















	
<path
   style="display:inline;fill:none;fill-rule:nonzero;stroke:url(#linearGradient6610);stroke-width:2.28606;stroke-linecap:round;stroke-linejoin:round;stroke-miterlimit:4;stroke-opacity:1"
   d="m 87.472409,34.768892 c 2.636419,6.099404 7.267976,5.789068 7.382524,13.929977 0.06528,4.540098 3.655711,6.924065 3.655711,11.56194 0,4.637876 -8.009875,6.929506 -10.738037,9.657666 -2.728171,2.728169 0.215234,9.724384 -7.185982,11.780271 -7.330877,2.036357 -10.912653,-0.818444 -15.550532,-0.818444 -4.637878,0 -15.736038,8.942872 -19.828286,4.850625 -4.092245,-4.092243 -4.179554,-13.035118 -7.726166,-16.581728 -3.819431,-3.819431 -9.854075,-9.15576 -9.854075,-15.976168 0,-6.820408 3.9385,-10.420952 9.581259,-16.761792 5.821901,-6.542145 6.00196,-16.368982 12.822369,-16.368982 6.820409,0 9.434625,1.870913 15.239582,1.724205 9.253392,-0.233857 10.387345,-4.634979 17.192873,-1.18402 6.000308,3.042643 2.944908,9.411704 5.00876,14.18645 z"
   id="path6600"
   sodipodi:nodetypes="csssssssssssss" />
<path
   id="path6612"
   d="m 64.095808,27.961775 c -13.414173,0 -24.337981,10.841021 -24.337981,24.255199 0,8.392107 4.534866,15.500912 11.010038,19.867737 C 67.320008,63.176031 64.378612,47.38342 86.447016,42.945357 82.791592,34.146084 74.212975,27.961775 64.095808,27.961775 Z"
   style="color:#000000;display:inline;overflow:visible;visibility:visible;opacity:1;fill:url(#linearGradient6623);fill-opacity:1;fill-rule:nonzero;stroke:none;stroke-width:2.28606;stroke-linecap:round;stroke-linejoin:round;stroke-miterlimit:4;stroke-dashoffset:0;stroke-opacity:1;marker:none;marker-start:none;marker-mid:none;marker-end:none" />
</svg>
